<mxfile host="app.diagrams.net" modified="2021-05-01T14:57:14.000Z" agent="5.0 (Windows NT 10.0; Win64; x64) AppleWebKit/537.36 (KHTML, like Gecko) Chrome/90.0.4430.93 Safari/537.36" etag="aJk5i_QqK0gTzRjNvTHK" version="14.6.9" type="github">
  <diagram id="dvubAqMYufWWw5VFHjV8" name="Page-1">
    <mxGraphModel dx="1131" dy="605" grid="1" gridSize="10" guides="1" tooltips="1" connect="1" arrows="1" fold="1" page="1" pageScale="1" pageWidth="827" pageHeight="1169" math="0" shadow="0">
      <root>
        <mxCell id="0" />
        <mxCell id="1" parent="0" />
        <mxCell id="UCZMOvO9I7WX_uTfksIz-1" value=": User Controller" style="shape=umlLifeline;perimeter=lifelinePerimeter;whiteSpace=wrap;html=1;container=1;collapsible=0;recursiveResize=0;outlineConnect=0;" parent="1" vertex="1">
          <mxGeometry x="150" y="50" width="100" height="300" as="geometry" />
        </mxCell>
        <mxCell id="UCZMOvO9I7WX_uTfksIz-2" value="User" style="shape=umlLifeline;participant=umlActor;perimeter=lifelinePerimeter;whiteSpace=wrap;html=1;container=1;collapsible=0;recursiveResize=0;verticalAlign=top;spacingTop=36;outlineConnect=0;" parent="1" vertex="1">
          <mxGeometry x="60" y="50" width="20" height="300" as="geometry" />
        </mxCell>
        <mxCell id="C0eVFo4T5egDbvLVe-NJ-1" value="" style="endArrow=classic;html=1;" parent="1" edge="1">
          <mxGeometry width="50" height="50" relative="1" as="geometry">
            <mxPoint x="69.5" y="121" as="sourcePoint" />
            <mxPoint x="199.5" y="121" as="targetPoint" />
          </mxGeometry>
        </mxCell>
        <mxCell id="ced3yoo2r2mryT5xVWER-3" value="" style="endArrow=none;html=1;strokeWidth=4;" parent="1" edge="1">
          <mxGeometry width="50" height="50" relative="1" as="geometry">
            <mxPoint x="5" y="396" as="sourcePoint" />
            <mxPoint x="675" y="396" as="targetPoint" />
          </mxGeometry>
        </mxCell>
        <mxCell id="ced3yoo2r2mryT5xVWER-4" value="&lt;b&gt;&lt;font style=&quot;font-size: 15px&quot;&gt;Register&lt;/font&gt;&lt;/b&gt;" style="text;html=1;strokeColor=none;fillColor=none;align=center;verticalAlign=middle;whiteSpace=wrap;rounded=0;" parent="1" vertex="1">
          <mxGeometry x="20" y="10" width="40" height="20" as="geometry" />
        </mxCell>
        <mxCell id="ced3yoo2r2mryT5xVWER-5" value="" style="endArrow=none;html=1;strokeWidth=4;" parent="1" edge="1">
          <mxGeometry width="50" height="50" relative="1" as="geometry">
            <mxPoint x="10" y="770" as="sourcePoint" />
            <mxPoint x="680" y="770" as="targetPoint" />
          </mxGeometry>
        </mxCell>
        <mxCell id="ced3yoo2r2mryT5xVWER-6" value="&lt;b&gt;&lt;font style=&quot;font-size: 15px&quot;&gt;Get Direction&lt;/font&gt;&lt;/b&gt;" style="text;html=1;strokeColor=none;fillColor=none;align=center;verticalAlign=middle;whiteSpace=wrap;rounded=0;" parent="1" vertex="1">
          <mxGeometry x="10" y="400" width="110" height="20" as="geometry" />
        </mxCell>
        <mxCell id="ced3yoo2r2mryT5xVWER-7" value="" style="endArrow=none;html=1;strokeWidth=4;" parent="1" edge="1">
          <mxGeometry width="50" height="50" relative="1" as="geometry">
            <mxPoint x="10" y="1139" as="sourcePoint" />
            <mxPoint x="680" y="1139" as="targetPoint" />
          </mxGeometry>
        </mxCell>
        <mxCell id="ced3yoo2r2mryT5xVWER-8" value="&lt;b&gt;&lt;font style=&quot;font-size: 15px&quot;&gt;Create Memo&lt;/font&gt;&lt;/b&gt;" style="text;html=1;strokeColor=none;fillColor=none;align=left;verticalAlign=middle;whiteSpace=wrap;rounded=0;" parent="1" vertex="1">
          <mxGeometry x="10" y="780" width="110" height="20" as="geometry" />
        </mxCell>
        <mxCell id="ced3yoo2r2mryT5xVWER-9" value="" style="endArrow=none;html=1;strokeWidth=4;" parent="1" edge="1">
          <mxGeometry width="50" height="50" relative="1" as="geometry">
            <mxPoint x="10" y="1520" as="sourcePoint" />
            <mxPoint x="680" y="1520" as="targetPoint" />
          </mxGeometry>
        </mxCell>
        <mxCell id="ced3yoo2r2mryT5xVWER-10" style="edgeStyle=orthogonalEdgeStyle;rounded=0;orthogonalLoop=1;jettySize=auto;html=1;exitX=0.5;exitY=1;exitDx=0;exitDy=0;strokeWidth=4;" parent="1" source="ced3yoo2r2mryT5xVWER-8" target="ced3yoo2r2mryT5xVWER-8" edge="1">
          <mxGeometry relative="1" as="geometry" />
        </mxCell>
        <mxCell id="ced3yoo2r2mryT5xVWER-11" value="&lt;span style=&quot;font-size: 15px&quot;&gt;&lt;b&gt;Create Board&lt;/b&gt;&lt;/span&gt;" style="text;html=1;strokeColor=none;fillColor=none;align=left;verticalAlign=middle;whiteSpace=wrap;rounded=0;" parent="1" vertex="1">
          <mxGeometry x="15" y="1149" width="110" height="20" as="geometry" />
        </mxCell>
        <mxCell id="ced3yoo2r2mryT5xVWER-12" value="&lt;span style=&quot;font-size: 15px&quot;&gt;&lt;b&gt;Create Suggestion&lt;/b&gt;&lt;/span&gt;" style="text;html=1;strokeColor=none;fillColor=none;align=left;verticalAlign=middle;whiteSpace=wrap;rounded=0;" parent="1" vertex="1">
          <mxGeometry x="15" y="1540" width="135" height="20" as="geometry" />
        </mxCell>
        <mxCell id="ced3yoo2r2mryT5xVWER-13" value="" style="endArrow=none;html=1;strokeWidth=4;" parent="1" edge="1">
          <mxGeometry width="50" height="50" relative="1" as="geometry">
            <mxPoint x="15" y="1920" as="sourcePoint" />
            <mxPoint x="685" y="1920" as="targetPoint" />
          </mxGeometry>
        </mxCell>
        <mxCell id="R5h7LsnZrycsHY_8FVYa-1" value="Memo&#xa;Map&#xa;Staff &lt; System Staff Board Staff&#xa;User&#xa;User Details&#xa;Login&#xa;Suggestion&#xa;Board&#xa;Posting" style="text;whiteSpace=wrap;html=1;" vertex="1" parent="1">
          <mxGeometry x="610" y="2000" width="190" height="140" as="geometry" />
        </mxCell>
        <mxCell id="R5h7LsnZrycsHY_8FVYa-2" value="User&lt;br&gt;System Staff&lt;br&gt;User Details" style="text;html=1;strokeColor=none;fillColor=none;align=center;verticalAlign=middle;whiteSpace=wrap;rounded=0;" vertex="1" parent="1">
          <mxGeometry x="645" y="120" width="100" height="20" as="geometry" />
        </mxCell>
        <mxCell id="R5h7LsnZrycsHY_8FVYa-3" value=": User Details" style="shape=umlLifeline;perimeter=lifelinePerimeter;whiteSpace=wrap;html=1;container=1;collapsible=0;recursiveResize=0;outlineConnect=0;" vertex="1" parent="1">
          <mxGeometry x="330" y="50" width="100" height="300" as="geometry" />
        </mxCell>
        <mxCell id="R5h7LsnZrycsHY_8FVYa-4" value="User" style="shape=umlLifeline;participant=umlActor;perimeter=lifelinePerimeter;whiteSpace=wrap;html=1;container=1;collapsible=0;recursiveResize=0;verticalAlign=top;spacingTop=36;outlineConnect=0;" vertex="1" parent="1">
          <mxGeometry x="60" y="435" width="20" height="300" as="geometry" />
        </mxCell>
        <mxCell id="R5h7LsnZrycsHY_8FVYa-5" value="User" style="shape=umlLifeline;participant=umlActor;perimeter=lifelinePerimeter;whiteSpace=wrap;html=1;container=1;collapsible=0;recursiveResize=0;verticalAlign=top;spacingTop=36;outlineConnect=0;" vertex="1" parent="1">
          <mxGeometry x="60" y="820" width="20" height="300" as="geometry" />
        </mxCell>
        <mxCell id="R5h7LsnZrycsHY_8FVYa-6" value="Staff" style="shape=umlLifeline;participant=umlActor;perimeter=lifelinePerimeter;whiteSpace=wrap;html=1;container=1;collapsible=0;recursiveResize=0;verticalAlign=top;spacingTop=36;outlineConnect=0;" vertex="1" parent="1">
          <mxGeometry x="55" y="1190" width="20" height="300" as="geometry" />
        </mxCell>
        <mxCell id="R5h7LsnZrycsHY_8FVYa-7" value="User" style="shape=umlLifeline;participant=umlActor;perimeter=lifelinePerimeter;whiteSpace=wrap;html=1;container=1;collapsible=0;recursiveResize=0;verticalAlign=top;spacingTop=36;outlineConnect=0;" vertex="1" parent="1">
          <mxGeometry x="55" y="1570" width="20" height="300" as="geometry" />
        </mxCell>
        <mxCell id="R5h7LsnZrycsHY_8FVYa-8" value="User&lt;br&gt;Map" style="text;html=1;strokeColor=none;fillColor=none;align=center;verticalAlign=middle;whiteSpace=wrap;rounded=0;" vertex="1" parent="1">
          <mxGeometry x="645" y="470" width="100" height="20" as="geometry" />
        </mxCell>
        <mxCell id="R5h7LsnZrycsHY_8FVYa-9" value=": Map Controller" style="shape=umlLifeline;perimeter=lifelinePerimeter;whiteSpace=wrap;html=1;container=1;collapsible=0;recursiveResize=0;outlineConnect=0;" vertex="1" parent="1">
          <mxGeometry x="140" y="440" width="100" height="300" as="geometry" />
        </mxCell>
        <mxCell id="R5h7LsnZrycsHY_8FVYa-10" value=": Map" style="shape=umlLifeline;perimeter=lifelinePerimeter;whiteSpace=wrap;html=1;container=1;collapsible=0;recursiveResize=0;outlineConnect=0;" vertex="1" parent="1">
          <mxGeometry x="330" y="440" width="100" height="300" as="geometry" />
        </mxCell>
        <mxCell id="R5h7LsnZrycsHY_8FVYa-13" value="User&lt;br&gt;Map&lt;br&gt;Memo" style="text;html=1;strokeColor=none;fillColor=none;align=center;verticalAlign=middle;whiteSpace=wrap;rounded=0;" vertex="1" parent="1">
          <mxGeometry x="611" y="990" width="100" height="20" as="geometry" />
        </mxCell>
        <mxCell id="R5h7LsnZrycsHY_8FVYa-14" value=": Memo Controller" style="shape=umlLifeline;perimeter=lifelinePerimeter;whiteSpace=wrap;html=1;container=1;collapsible=0;recursiveResize=0;outlineConnect=0;" vertex="1" parent="1">
          <mxGeometry x="120" y="820" width="100" height="300" as="geometry" />
        </mxCell>
        <mxCell id="R5h7LsnZrycsHY_8FVYa-15" value=": Map" style="shape=umlLifeline;perimeter=lifelinePerimeter;whiteSpace=wrap;html=1;container=1;collapsible=0;recursiveResize=0;outlineConnect=0;" vertex="1" parent="1">
          <mxGeometry x="320" y="820" width="100" height="300" as="geometry" />
        </mxCell>
        <mxCell id="R5h7LsnZrycsHY_8FVYa-16" value=": Memo" style="shape=umlLifeline;perimeter=lifelinePerimeter;whiteSpace=wrap;html=1;container=1;collapsible=0;recursiveResize=0;outlineConnect=0;" vertex="1" parent="1">
          <mxGeometry x="500" y="820" width="100" height="300" as="geometry" />
        </mxCell>
        <mxCell id="R5h7LsnZrycsHY_8FVYa-18" value="Kakao Map api" style="shape=umlLifeline;participant=umlActor;perimeter=lifelinePerimeter;whiteSpace=wrap;html=1;container=1;collapsible=0;recursiveResize=0;verticalAlign=top;spacingTop=36;outlineConnect=0;" vertex="1" parent="1">
          <mxGeometry x="550" y="440" width="20" height="300" as="geometry" />
        </mxCell>
        <mxCell id="R5h7LsnZrycsHY_8FVYa-20" value="Staff&lt;br&gt;Board&lt;br&gt;Posting" style="text;html=1;strokeColor=none;fillColor=none;align=center;verticalAlign=middle;whiteSpace=wrap;rounded=0;" vertex="1" parent="1">
          <mxGeometry x="610" y="1360" width="100" height="20" as="geometry" />
        </mxCell>
        <mxCell id="R5h7LsnZrycsHY_8FVYa-21" value="User&lt;br&gt;Suggestion" style="text;html=1;strokeColor=none;fillColor=none;align=center;verticalAlign=middle;whiteSpace=wrap;rounded=0;" vertex="1" parent="1">
          <mxGeometry x="620" y="1620" width="100" height="20" as="geometry" />
        </mxCell>
        <mxCell id="R5h7LsnZrycsHY_8FVYa-22" value=": Board Controller" style="shape=umlLifeline;perimeter=lifelinePerimeter;whiteSpace=wrap;html=1;container=1;collapsible=0;recursiveResize=0;outlineConnect=0;" vertex="1" parent="1">
          <mxGeometry x="110" y="1190" width="100" height="300" as="geometry" />
        </mxCell>
        <mxCell id="R5h7LsnZrycsHY_8FVYa-23" value=": Board" style="shape=umlLifeline;perimeter=lifelinePerimeter;whiteSpace=wrap;html=1;container=1;collapsible=0;recursiveResize=0;outlineConnect=0;" vertex="1" parent="1">
          <mxGeometry x="320" y="1190" width="100" height="300" as="geometry" />
        </mxCell>
        <mxCell id="R5h7LsnZrycsHY_8FVYa-27" value=": Suggestion Controller" style="shape=umlLifeline;perimeter=lifelinePerimeter;whiteSpace=wrap;html=1;container=1;collapsible=0;recursiveResize=0;outlineConnect=0;" vertex="1" parent="1">
          <mxGeometry x="120" y="1580" width="100" height="300" as="geometry" />
        </mxCell>
        <mxCell id="R5h7LsnZrycsHY_8FVYa-28" value=": Suggestion" style="shape=umlLifeline;perimeter=lifelinePerimeter;whiteSpace=wrap;html=1;container=1;collapsible=0;recursiveResize=0;outlineConnect=0;" vertex="1" parent="1">
          <mxGeometry x="320" y="1580" width="100" height="300" as="geometry" />
        </mxCell>
        <mxCell id="R5h7LsnZrycsHY_8FVYa-34" value="System Staff" style="shape=umlLifeline;participant=umlActor;perimeter=lifelinePerimeter;whiteSpace=wrap;html=1;container=1;collapsible=0;recursiveResize=0;verticalAlign=top;spacingTop=36;outlineConnect=0;" vertex="1" parent="1">
          <mxGeometry x="550" y="50" width="20" height="300" as="geometry" />
        </mxCell>
        <mxCell id="R5h7LsnZrycsHY_8FVYa-35" value=": Posting" style="shape=umlLifeline;perimeter=lifelinePerimeter;whiteSpace=wrap;html=1;container=1;collapsible=0;recursiveResize=0;outlineConnect=0;" vertex="1" parent="1">
          <mxGeometry x="490" y="1190" width="100" height="300" as="geometry" />
        </mxCell>
      </root>
    </mxGraphModel>
  </diagram>
</mxfile>
